<mxfile host="Electron" modified="2024-03-26T17:27:22.528Z" agent="Mozilla/5.0 (Windows NT 10.0; Win64; x64) AppleWebKit/537.36 (KHTML, like Gecko) draw.io/22.0.3 Chrome/114.0.5735.289 Electron/25.8.4 Safari/537.36" etag="cJWZ0D6K5_yjQwf7ALeq" version="22.0.3" type="device">
  <diagram name="Pagina-1" id="YzWQodzD78JNeDAUSXoz">
    <mxGraphModel dx="911" dy="433" grid="1" gridSize="10" guides="1" tooltips="1" connect="1" arrows="1" fold="1" page="1" pageScale="1" pageWidth="827" pageHeight="1169" math="0" shadow="0">
      <root>
        <mxCell id="0" />
        <mxCell id="1" parent="0" />
        <mxCell id="3lgGTsM1d1NOESyLPiWt-7" style="edgeStyle=orthogonalEdgeStyle;rounded=0;orthogonalLoop=1;jettySize=auto;html=1;exitX=0;exitY=0.5;exitDx=0;exitDy=0;" edge="1" parent="1" source="3lgGTsM1d1NOESyLPiWt-1" target="3lgGTsM1d1NOESyLPiWt-2">
          <mxGeometry relative="1" as="geometry" />
        </mxCell>
        <mxCell id="3lgGTsM1d1NOESyLPiWt-8" style="edgeStyle=orthogonalEdgeStyle;rounded=0;orthogonalLoop=1;jettySize=auto;html=1;exitX=0;exitY=0.5;exitDx=0;exitDy=0;" edge="1" parent="1" source="3lgGTsM1d1NOESyLPiWt-1" target="3lgGTsM1d1NOESyLPiWt-3">
          <mxGeometry relative="1" as="geometry" />
        </mxCell>
        <mxCell id="3lgGTsM1d1NOESyLPiWt-10" style="edgeStyle=orthogonalEdgeStyle;rounded=0;orthogonalLoop=1;jettySize=auto;html=1;exitX=1;exitY=0.5;exitDx=0;exitDy=0;" edge="1" parent="1" source="3lgGTsM1d1NOESyLPiWt-1" target="3lgGTsM1d1NOESyLPiWt-5">
          <mxGeometry relative="1" as="geometry" />
        </mxCell>
        <mxCell id="3lgGTsM1d1NOESyLPiWt-14" style="edgeStyle=orthogonalEdgeStyle;rounded=0;orthogonalLoop=1;jettySize=auto;html=1;exitX=1;exitY=0.5;exitDx=0;exitDy=0;" edge="1" parent="1" source="3lgGTsM1d1NOESyLPiWt-1" target="3lgGTsM1d1NOESyLPiWt-4">
          <mxGeometry relative="1" as="geometry" />
        </mxCell>
        <mxCell id="3lgGTsM1d1NOESyLPiWt-1" value="Ruoli dei re" style="ellipse;whiteSpace=wrap;html=1;" vertex="1" parent="1">
          <mxGeometry x="300" y="130" width="120" height="80" as="geometry" />
        </mxCell>
        <mxCell id="3lgGTsM1d1NOESyLPiWt-2" value="Capi guerrieri e aura di sacralità (= esseri divini)" style="rounded=0;whiteSpace=wrap;html=1;" vertex="1" parent="1">
          <mxGeometry x="50" y="250" width="100" height="60" as="geometry" />
        </mxCell>
        <mxCell id="3lgGTsM1d1NOESyLPiWt-3" value="Funzionari imperiali &lt;br&gt;(=si consideravano autonomi, pur essendo al soldo della corona)" style="rounded=0;whiteSpace=wrap;html=1;" vertex="1" parent="1">
          <mxGeometry x="190" y="240" width="130" height="90" as="geometry" />
        </mxCell>
        <mxCell id="3lgGTsM1d1NOESyLPiWt-4" value="Alleati della Chiesa&lt;br&gt;(= conversione al cattolicesimo e garanti della religione)&amp;nbsp;" style="rounded=0;whiteSpace=wrap;html=1;" vertex="1" parent="1">
          <mxGeometry x="390" y="240" width="110" height="90" as="geometry" />
        </mxCell>
        <mxCell id="3lgGTsM1d1NOESyLPiWt-5" value="Successori politica romana &lt;br&gt;(=governo basato sulla personalità di chi governava)" style="rounded=0;whiteSpace=wrap;html=1;" vertex="1" parent="1">
          <mxGeometry x="560" y="240" width="120" height="90" as="geometry" />
        </mxCell>
        <mxCell id="3lgGTsM1d1NOESyLPiWt-15" value="Teodorico&lt;br&gt;- Re goto che unisce romani con goti&lt;br&gt;- Gode di cittadinanza romana&lt;br&gt;- Erige edifici a favore del culto cattolico&lt;br&gt;(da pag. 254 fino a 270)" style="rounded=0;whiteSpace=wrap;html=1;" vertex="1" parent="1">
          <mxGeometry x="250" y="410" width="210" height="130" as="geometry" />
        </mxCell>
      </root>
    </mxGraphModel>
  </diagram>
</mxfile>
